<svg xmlns:xlink="http://www.w3.org/1999/xlink" xmlns="http://www.w3.org/2000/svg" class="gl-icon gl-icon--size-communication gl-icon--size-communication" width="15"  height="19" ><defs><symbol xmlns="http://www.w3.org/2000/svg" viewBox="0 0 15 19" id="klarna-logo"><title>temp</title><g id="klarna-logo_Layer_370" data-name="Layer 370"><g id="klarna-logo_Layer_369" data-name="Layer 369"><path d="M10.25,3.07H7.38A7.34,7.34,0,0,1,4.42,9l-1.14.85,4.41,6H11.3L7.25,10.32A10.17,10.17,0,0,0,10.25,3.07Z" style="fill:currentColor"></path><rect x="-0.01" y="3.07" width="2.94" height="12.77" style="fill:currentColor"></rect><path d="M13.34,12.7A1.65,1.65,0,1,0,15,14.35,1.65,1.65,0,0,0,13.34,12.7Z" style="fill:currentColor"></path><path d="M12.16,3.67a.18.18,0,0,0,.11-.19.2.2,0,0,0-.22-.2h-.24v.65h.11V3.69h.13l.1.24h.13Zm-.11-.09h-.13V3.39h.13c.07,0,.11,0,.11.09S12.14,3.58,12.05,3.58Z" style="fill:currentColor"></path><path d="M12,3a.62.62,0,0,0,0,1.23A.62.62,0,0,0,12,3Zm0,1.11a.5.5,0,1,1,.49-.5A.49.49,0,0,1,12,4.11Z" style="fill:currentColor"></path></g></g></symbol></defs><use xlink:href="#klarna-logo"></use></svg>