<svg xmlns:xlink="http://www.w3.org/1999/xlink" width="20" height="20" viewBox="0 0 20 20" fill="none" xmlns="http://www.w3.org/2000/svg"><path d="M6.79143 9.74598V10.5943H2V4H6.79143V5.22814M6.79143 9.74598C6.79143 9.74598 7.94834 10.383 8.5 11C9.15551 11.7332 9.13417 11.7233 9.66629 13.232C9.96004 14.0649 10.1454 15.8697 10.1454 15.8697C10.1454 15.8697 11.1213 16.1629 11.5829 15.8697C12.0694 15.5607 12.5411 14.1565 12.5411 13.232C12.5411 12.3075 12.3375 11.4735 12.3375 11.4735H16.8534C18.77 11.0339 17.8117 7.95657 17.3326 6.19809C16.8534 4.43962 14.9369 4.1303 14.9369 4.1303H9L6.79143 5.22814M6.79143 9.74598V5.22814" stroke="#000000" stroke-linejoin="round" fill="none"></path></svg>