<svg xmlns:xlink="http://www.w3.org/1999/xlink" width="20" height="20" viewBox="0 0 20 20" fill="none" xmlns="http://www.w3.org/2000/svg"><path d="M6.79143 10.254V9.40572H2V16H6.79143V14.7719M6.79143 10.254C6.79143 10.254 7.94834 9.61701 8.5 9C9.15551 8.26684 9.13417 8.27672 9.66629 6.76801C9.96004 5.93512 10.1454 4.1303 10.1454 4.1303C10.1454 4.1303 11.1213 3.83713 11.5829 4.1303C12.0694 4.43932 12.5411 5.84347 12.5411 6.76801C12.5411 7.69254 12.3375 8.52648 12.3375 8.52648H16.8534C18.77 8.9661 17.8117 12.0434 17.3326 13.8019C16.8534 15.5604 14.9369 15.8697 14.9369 15.8697H9L6.79143 14.7719M6.79143 10.254V14.7719" stroke="#000000" stroke-linejoin="round" fill="none"></path></svg>